Coordinates
nRows=5
nColumns=24

# SIMM Motion File Header:
name Coordinates
datacolumns 24
datarows 5
otherdata 1
range 0.89500000000000002000 0.89900000000000002000
endheader
time	pelvis_tx	pelvis_ty	pelvis_tz	pelvis_tilt	pelvis_list	pelvis_rotation	hip_flexion_r	hip_adduction_r	hip_rotation_r	knee_angle_r	ankle_angle_r	subtalar_angle_r	mtp_angle_r	hip_flexion_l	hip_adduction_l	hip_rotation_l	knee_angle_l	ankle_angle_l	subtalar_angle_l	mtp_angle_l	lumbar_extension	lumbar_bending	lumbar_rotation
      0.89500000000000002000	      0.61126168748915022000	      1.02442515106408470000	      0.03520432046761682400	      5.04727015247585250000	     -1.67855126292548600000	      2.84807392179720820000	      7.11556939771584320000	      2.64854688122867540000	     -6.57628952226381450000	    -18.23637891140553400000	      5.46308849972373080000	      0.13152476294036675000	      8.29909348931413500000	      8.46633089812148040000	     -6.97479812702430650000	     -4.41038729837813740000	    -68.74400069942375100000	     -3.36903682532964100000	     -0.02277941188097528500	     -2.94554729264937130000	    -15.44932016335662800000	      4.62027143793828190000	     -2.67624236965239200000
      0.89600000000000002000	      0.61121220056833381000	      1.02459935490352970000	      0.03536223464131140600	      5.05056426957539270000	     -1.66429207105847450000	      2.82919474489703050000	      7.00745299839871020000	      2.65237318647988030000	     -6.54971081632867680000	    -18.15453986766155800000	      5.45487246283621910000	      0.12204226124253743000	      8.34585936588790740000	      8.59320381244581100000	     -6.94915349728136710000	     -4.40569855218432770000	    -68.77516463394147200000	     -3.29070676862705010000	     -0.03696469298256941500	     -2.89546463877090550000	    -15.45403669739377500000	      4.59681567343743240000	     -2.63840063500023980000
      0.89700000000000002000	      0.61116076472535397000	      1.02477061627742130000	      0.03551711204560024900	      5.05345524794605790000	     -1.64840539760087370000	      2.80956294513281300000	      6.89999269585726790000	      2.65400064379929330000	     -6.52205366838621980000	    -18.07393567373159000000	      5.46268594350484090000	      0.11918339738810434000	      8.36821287291799190000	      8.71884922038452180000	     -6.91964781111429070000	     -4.39916326198850530000	    -68.79911354059648000000	     -3.21026741215769060000	     -0.04917195057907668800	     -2.84425878565067200000	    -15.45857615784667300000	      4.57157048752590180000	     -2.60065887790958160000
      0.89800000000000002000	      0.61110932888237424000	      1.02494187765131260000	      0.03567198944988909200	      5.05634622631672230000	     -1.63251872414327260000	      2.78993114536859550000	      6.79253239331582570000	      2.65562810111870600000	     -6.49439652044376370000	    -17.99333147980162200000	      5.47049942417346190000	      0.11632453353367123000	      8.39056637994807630000	      8.84449462832323260000	     -6.89014212494721350000	     -4.39262797179268280000	    -68.82306244725148800000	     -3.12982805568833160000	     -0.06137920817558396200	     -2.79305293253043850000	    -15.46311561829957000000	      4.54632530161437210000	     -2.56291712081892390000
      0.89900000000000002000	      0.61105715443979791000	      1.02511175605602920000	      0.03582571362604580800	      5.05906646140194030000	     -1.61597020827690070000	      2.76996911172390090000	      6.68540256932073080000	      2.65635627423219530000	     -6.46628434916411350000	    -17.91359286151546500000	      5.48932249195540490000	      0.11766118580727360000	      8.39573910879169820000	      8.96961514380211790000	     -6.85911354617041090000	     -4.38531707053173750000	    -68.84421157656404900000	     -3.04612489355144690000	     -0.07026743491467861400	     -2.74592551256950210000	    -15.46756874739294600000	      4.52034052964313380000	     -2.52520034936074160000
